<svg width="132" height="128" viewBox="0 0 132 128" fill="none" xmlns="http://www.w3.org/2000/svg">
<path d="M96.2502 36.4682C96.2502 36.4682 119.636 32.1912 119.83 34.4045C119.83 34.4274 92.8066 37.7151 92.8066 37.7151C92.9209 39.0265 119.271 35.4 119.271 35.4C119.414 37.0272 97.5387 38.7563 97.6551 40.0801C97.8297 42.0711 123.814 37.792 123.814 37.792C123.814 37.792 94.9867 41.379 95.1155 42.8442C95.1945 43.7378 126.166 38.3428 126.322 40.1134C126.339 40.3067 96.0424 43.3783 96.0424 43.3783C96.2398 45.6373 123.325 39.5065 123.454 40.98C123.566 42.2685 96.0299 45.471 96.0299 45.471C96.1027 46.3106 124.009 40.29 124.246 43.0021C124.422 45.0221 93.1475 43.6173 93.3906 46.4021C93.6192 49.0061 126.07 43.2556 126.095 43.5404C126.206 44.7894 92.285 44.9037 92.4554 46.8551C92.6632 49.2243 122.88 42.0503 123.067 44.1763C123.067 44.1763 93.7979 46.7699 93.8312 47.1668C93.8644 47.5638 124.639 43.7295 124.703 44.4652C124.778 45.311 91.5223 48.0522 91.7073 50.1823L128.714 46.9445C128.714 46.9445 91.7696 49.0871 91.9442 51.0988C91.9712 51.4043 125.071 46.5434 125.214 48.1872C125.476 51.1736 91.3851 52.0652 91.4454 52.7531C91.46 52.9235 129.065 47.0276 129.277 49.4425C129.448 51.3856 90.9965 53.7631 90.9965 53.7631C91.2147 56.2465 127.76 50.4878 127.764 50.546C127.864 51.6807 90.9944 53.3744 91.1545 55.1825C91.1545 55.1825 127.964 48.9021 128.23 51.9384C128.23 51.9384 92.5323 57.6722 92.5365 57.7221C92.6071 58.5263 129.882 52.4621 130.054 54.4406C130.125 55.2428 90.5788 57.5018 90.6785 58.6386C90.8739 60.8643 126.617 53.6114 126.781 55.4797C127.014 58.1356 93.5631 55.5483 93.8146 58.4183L128.215 55.409L92.576 61.122C92.8191 63.9047 128.438 55.7935 128.627 57.9673L91.3831 62.7971C91.6075 65.3678 125.829 56.7495 126.093 59.7608C126.276 61.8556 92.7817 62.9654 92.948 64.8649C92.948 64.8649 129.903 58.6157 130.165 61.6083C130.258 62.6828 87.8252 66.5545 87.9395 67.8637C87.9395 67.8637 126.779 63.3727 126.875 64.4575C127.108 67.1093 89.2758 67.5728 89.4815 69.9108C89.5563 70.7587 128.647 66.2199 128.67 66.4817C128.701 66.8433 88.0891 69.1294 88.1888 70.2828C88.1888 70.2828 128.363 64.2975 128.577 66.7498C128.591 66.9244 88.8913 71.6606 88.8913 71.6606C89.1053 74.1025 131 67.976 131 67.976C131 67.976 90.5996 68.6389 90.8739 71.777C91.0921 74.2646 126.247 67.9967 126.307 68.6763C126.569 71.6731 87.8626 72.1823 87.8626 72.1823C88.0579 74.408 128.679 66.2614 128.882 68.5932C129.063 70.6672 89.9429 69.9149 90.2047 72.8992C90.4811 76.0685 130.699 69.3559 130.699 69.3559C130.699 69.3559 90.0218 73.0593 90.2795 75.9958C90.4354 77.781 128.824 70.9499 128.97 72.6104C129.225 75.5282 90.3024 77.5253 90.3024 77.5253C90.4998 79.7844 129.053 72.44 129.198 74.1233C129.263 74.8569 89.0492 74.6366 89.3464 78.0116C89.3464 78.0116 126.203 73.1299 126.347 74.7738C126.347 74.7738 85.9132 76.1828 86.2208 79.7033C86.2852 80.4348 128.232 74.2896 128.381 76.0145C128.65 79.0778 89.8265 79.4248 89.8888 80.1418C90.1091 82.6544 129.454 73.7596 129.707 76.6587C129.707 76.6587 86.6053 79.3853 86.7383 80.9128C86.9773 83.6332 125.094 77.0889 125.135 77.5544C125.295 79.3812 87.0438 79.7906 87.2786 82.4736C87.3389 83.1698 127.126 78.9884 127.126 78.9884C127.438 82.5421 86.3455 82.2886 86.4203 83.1386C86.6053 85.2563 128.169 79.4851 128.169 79.4851C128.323 81.2536 88.9723 82.3509 89.1324 84.1673C89.4358 87.6317 125.241 81.0084 125.241 81.0084L84.9136 86.2081C85.0404 87.6587 127.326 80.7611 127.477 82.4839C127.523 83.0056 87.3222 85.221 87.4698 86.9043C87.7587 90.2003 127.735 83.3817 127.735 83.3817C127.893 85.1835 84.0491 86.418 84.155 87.6213C84.3566 89.9156 123.961 83.0949 124.053 84.1299C124.256 86.4492 86.8671 89.2485 86.8671 89.2485C87.1456 92.4303 127.095 83.5896 127.282 85.7135C127.299 85.9068 87.131 88.8329 87.3887 91.7735C87.5425 93.5359 125.108 88.4733 125.108 88.4733C125.108 88.4733 82.9455 92.9436 82.9975 93.5317C82.9996 93.567 121.837 90.1338 121.837 90.1338C122.122 93.3842 83.8766 93.0246 84.0096 94.5313C84.2195 96.94 120.538 89.6205 120.686 91.3226C120.744 91.9855 84.0304 95.8863 84.1675 97.4471C84.4751 100.972 123.188 91.7154 123.39 94.0159C123.691 97.472 80.778 99.0057 80.778 99.0057C80.8673 100.022 121.405 94.5064 121.486 95.4437" stroke="white" stroke-width="0.623463" stroke-linecap="round" stroke-linejoin="round"/>
<path d="M60.983 86.5863L63.6161 86.3556C63.6286 86.5031 60.4385 86.871 60.4385 86.871C60.451 87.0185 61.0038 86.7858 61.0079 86.8211C61.0266 87.0456 58.4684 89.2651 58.4974 89.5955C58.4974 89.5955 65.3098 88.5481 65.3493 88.997C65.4075 89.6662 56.4982 91.655 56.4982 91.655L69.8175 90.4892C69.8175 90.4892 55.9184 93.2199 55.9309 93.3446C56.0202 94.3629 71.9185 90.8092 72.0183 91.9377C72.0723 92.5549 55.1287 93.7977 55.1287 93.7977C55.164 94.2112 68.7181 91.5283 68.8116 92.6006L52.5226 94.1967C52.5974 95.0612 72.6085 91.4389 72.6937 92.4323C72.8246 93.9348 48.9834 96.0879 48.9834 96.0879C49.0083 96.3726 70.0752 93.17 70.1687 94.2341" stroke="white" stroke-width="0.623463" stroke-linecap="round" stroke-linejoin="round"/>
<path d="M81.4451 48.9063C81.4451 48.925 82.8291 48.7858 82.8291 48.7858C82.879 49.3614 77.3884 52.0195 77.3967 52.1234C77.3967 52.1234 79.8573 51.5311 79.8905 51.9052C79.93 52.3686 70.4617 55.0516 70.4617 55.0516C70.4617 55.0516 76.3493 54.4094 76.3597 54.5362C76.3825 54.7897 70.4409 56.126 70.4534 56.2777C70.4929 56.7225 77.964 55.355 77.9869 55.6189C77.9869 55.6189 66.989 59.0147 67.0098 59.2433C67.0493 59.6964 73.4065 58.6843 73.4065 58.6843C73.4335 58.9898 62.2071 61.6707 62.2071 61.6707C62.2258 61.8868 68.4999 60.7189 68.5352 61.1179C68.5518 61.3153 54.4886 65.2327 54.4969 65.3221C54.5156 65.532 65.5966 64.3516 65.5966 64.3516C65.6881 65.399 54.1602 67.234 54.1852 67.5146C54.2704 68.4976 62.2923 66.3986 62.3276 66.8018C62.3899 67.5146 47.6596 70.0147 47.6949 70.4179C47.7385 70.9104 59.3495 69.3975 59.3495 69.3975C59.4555 70.6194 41.321 73.4957 41.3397 73.7014C41.3397 73.7014 56.8515 71.7957 56.8993 72.3402" stroke="white" stroke-width="0.623463" stroke-linecap="round" stroke-linejoin="round"/>
<path d="M55.085 1.95328C55.11 2.2276 65.8751 0.887154 65.8855 1.00769C65.898 1.13862 41.4624 4.46375 41.5351 5.29088C41.6328 6.4048 76.5966 2.09875 76.607 2.22344C76.7151 3.47037 39.1701 6.95137 39.2241 7.58107C39.2366 7.7307 85.5454 3.52856 85.5454 3.52856C85.5869 4.00447 37.0004 4.5926 37.3267 8.31468C37.4036 9.18545 85.6742 -0.459527 86.0691 4.05019C86.0691 4.05019 33.004 7.4065 33.1454 9.03582C33.3386 11.2408 84.1758 4.57182 84.1758 4.57182C84.2465 5.37401 35.5228 9.12726 35.5228 9.12726C35.6184 10.21 88.6959 3.47868 88.7832 4.46791C89.0617 7.63926 28.5484 10.4054 28.7022 12.1718C28.7022 12.1718 91.5452 4.77549 91.7114 6.65834C91.7114 6.65834 29.442 9.01504 29.8306 13.4666C29.9304 14.5992 92.3474 6.99917 92.4326 7.99048C92.5365 9.18545 25.6555 13.2047 25.8508 15.4346C26.1501 18.8595 96.4601 6.76433 96.6763 9.23741C97.2374 15.6508 22.4696 13.3169 22.7917 17.0016C22.7917 17.0016 100.552 6.11801 100.908 10.1684C100.908 10.1684 21.2351 11.1535 21.8773 18.4938C21.8773 18.4938 99.2158 5.25555 99.777 11.6793C100.242 16.9954 17.4154 16.2742 17.8206 20.892C17.8206 20.892 102.308 12.8098 102.368 13.4957C102.853 19.0362 20.1753 15.8357 20.6241 20.9731C21.0294 25.5971 102.907 12.1136 103.05 13.7617C103.57 19.7054 15.3206 18.1031 15.7216 22.6855C16.0188 26.0792 103.863 12.1843 104.106 14.9525C104.503 19.4892 13.8533 25.2937 13.8783 25.5805C14.5869 33.673 109.54 16.8333 109.574 17.2073C109.574 17.2073 15.1688 19.855 15.9045 28.253L108.086 20.1875C108.163 21.077 13.7723 30.8217 13.7723 30.8217C14.1734 35.3958 112.298 19.749 112.51 22.1826C113.215 30.2273 11.453 33.5836 11.453 33.5836C11.9061 38.7501 114.341 24.5829 114.341 24.5829C114.721 28.9285 10.3287 31.3184 10.5864 34.2611C11.2223 41.5224 115.345 25.0962 115.345 25.0962C115.513 27.031 7.23423 36.7633 7.23423 36.7633L117.519 27.1142C117.519 27.1142 5.62985 34.0741 6.02471 38.5963C6.27202 41.4268 118.992 18.8096 119.852 28.6375C120.015 30.5017 8.19021 35.1901 8.6017 39.9076C9.0111 44.5878 116.496 30.4684 116.496 30.4684C117.359 40.3274 6.95367 36.7716 7.3423 41.2107C7.3423 41.2107 120.104 24.0717 120.736 31.2893C121.074 35.1631 6.63779 34.55 7.30281 42.1542C8.10916 51.3814 119.14 32.37 119.14 32.37C119.458 36.011 7.61039 43.8625 7.61039 43.8625C8.24009 51.0614 121.55 24.373 122.378 33.8226C122.853 39.2717 5.63401 47.1876 5.63401 47.1876C5.78988 48.9603 80.0007 36.1939 80.3914 40.6475C80.5556 42.5283 2.69334 49.218 2.69334 49.218C3.23783 55.4402 74.6639 38.5776 75.04 42.8878C75.4951 48.0979 0.893612 48.1789 1.22405 51.9613C1.22405 51.9613 64.8069 43.7523 65.0376 46.3792C65.3306 49.7272 4.68219 49.5152 4.9773 52.8965C5.42827 58.0567 63.4104 47.7841 63.4104 47.7841C63.8655 52.9754 5.12901 50.9471 5.31604 53.0814C5.61115 56.4502 61.9598 47.6033 62.0055 48.1228C62.0907 49.1058 2.93649 56.0927 2.93649 56.0927L53.223 51.6932C53.5035 54.8957 0.964271 54.956 1.14092 56.9864C1.14715 57.0508 49.5799 50.4774 49.7773 52.7323C50.1223 56.6663 1.00999 57.0695 1.00999 57.0695L49.237 52.8507C49.2453 52.9484 1.72905 58.04 1.74152 58.1813C1.74152 58.1813 44.6254 50.5522 44.9621 54.399L4.96483 58.2042C5.23084 61.2426 44.0019 54.5528 44.0227 54.7876C44.3428 58.4453 0.899846 57.6244 1.15962 60.5983C1.23028 61.413 37.1771 56.7661 37.2374 57.4415C37.2748 57.8717 0.714885 60.5921 1.00168 63.8507L28.5359 61.4421C28.592 62.0863 3.62646 64.2476 3.68673 64.9355C3.78232 66.037 25.3126 61.2779 25.4643 63.0298C25.616 64.7817 1.24483 65.7751 1.24483 65.7751C1.24483 65.7751 23.3071 63.3831 23.3466 63.8424C23.4713 65.2597 2.08443 64.6591 2.20288 66.0307C2.30056 67.1384 22.5465 63.273 22.6317 64.2435C22.6317 64.2435 4.0234 66.9846 4.15848 68.5246C4.15848 68.5246 24.3026 65.8105 24.3857 66.754C24.5437 68.5537 4.07743 69.4702 4.07743 69.4702C4.2333 71.2408 22.1184 65.8936 22.2909 67.8762C22.4218 69.3642 2.7931 71.0517 2.7931 71.0517C2.90116 72.2924 28.7063 67.2818 28.8372 68.774C28.8372 68.774 4.78194 73.7949 4.79441 73.9404C4.87546 74.8569 34.3383 71.3551 34.3383 71.3551C34.3383 71.3551 4.00885 75.9251 4.01093 75.948C4.28941 79.1297 39.7686 70.7504 39.9474 72.8036C39.9474 72.8036 4.61569 77.0681 4.70089 78.0366C4.93573 80.7279 56.1491 73.2671 56.1719 73.5331C56.2717 74.6803 5.77949 77.3715 5.9499 79.3271C5.9499 79.3271 56.0639 72.8286 56.2488 74.9276C56.2488 74.9276 6.72091 79.1692 6.91627 81.4033C7.28411 85.6137 52.3563 76.0955 52.4727 77.4173C52.693 79.9444 4.09613 80.4016 4.43488 84.2878C4.66972 86.975 51.0928 78.4564 51.2466 80.1917C51.3276 81.1206 7.95953 85.1773 7.95953 85.1773L48.8878 81.5965C48.8878 81.5965 7.50232 85.5244 7.6187 86.8482C7.84938 89.4813 51.8098 80.7029 52.0072 82.964C52.346 86.8357 5.20174 88.3133 5.20174 88.3133L51.5251 84.2608C51.5251 84.2608 5.75247 88.4484 5.9021 90.1442C6.21799 93.7478 49.2785 83.9117 49.4905 86.3307C49.5154 86.6237 8.28581 91.2665 8.28581 91.2665C8.48532 93.5379 49.0873 86.1852 49.2182 87.6857C49.5217 91.1418 7.45868 90.1068 7.77249 93.6876C8.03642 96.701 50.1243 87.9787 50.2989 89.9676C50.3654 90.7324 11.586 93.7769 11.586 93.7769C11.8354 96.6282 51.6103 88.4048 51.7724 90.2606C51.9178 91.9356 9.52858 93.2117 9.76549 95.93C9.76549 95.93 47.8965 92.1788 47.9339 92.5903C47.9859 93.1784 14.163 98.5319 14.163 98.5319C14.2773 99.8453 48.495 92.5259 48.7569 95.506C49.0312 98.6441 11.8146 99.2364 11.8354 99.4858C12.0785 102.26 51.5292 94.0429 51.7017 95.9985L11.665 100.523C11.9996 104.345 73.2299 92.7233 73.4398 95.1174C73.4398 95.1174 15.5367 102.312 15.5886 102.909C15.8339 105.714 77.0912 97.5281 77.0912 97.5281C77.1078 97.7068 18.893 102.707 19.1549 105.71C19.1549 105.71 118.298 89.1301 118.984 96.9753C119.042 97.6424 19.6432 106.2 19.8344 108.372C20.1025 111.446 115.108 94.8119 115.561 99.997C115.823 102.981 22.0477 109.775 22.0477 109.775C22.0477 109.775 114.212 101.556 114.225 101.712C114.962 110.147 21.3224 104.966 21.7588 109.943C22.4571 117.915 114.297 93.8705 114.989 101.786C115.586 108.607 22.241 110.253 22.241 110.253C22.4883 113.088 118.308 101.849 118.308 101.849C118.861 108.175 22.2472 110.326 22.4738 112.905C22.5278 113.53 112.128 105.062 112.128 105.062C112.213 106.032 23.7165 111.714 23.8724 113.499C23.8724 113.499 113.265 98.4737 113.89 105.623C114.027 107.188 29.8327 112.572 30.0384 114.919C30.6889 122.348 112.668 103.179 113.061 107.655C113.227 109.559 27.1331 109.779 27.7067 116.342C27.7067 116.342 109.042 103.266 109.559 109.181C109.559 109.181 33.4571 114.401 33.8333 118.691C34.2281 123.206 104.515 109.081 104.812 112.481C105.268 117.689 35.8034 114.968 36.2066 119.563C36.2066 119.563 104.908 109.029 105.301 113.518C105.378 114.391 35.3213 116.664 35.66 120.534C35.8928 123.204 105.376 109.218 105.829 114.395C106.332 120.152 36.1775 117.851 36.4663 121.149C36.7344 124.225 102.832 109.507 103.337 115.299C103.844 121.087 35.9489 117.076 36.323 121.344C36.3479 121.623 101.583 114.964 101.641 115.629C102.053 120.343 37.653 121.378 37.7091 122.022C37.8629 123.774 101.396 116.45 101.396 116.45C101.739 120.366 43.3431 121.868 43.5156 123.832C43.7629 126.669 94.8163 115.407 95.1571 119.314C95.1841 119.624 48.9086 124.352 49.0229 125.659C49.345 129.335 90.1652 121.056 90.2525 122.051C90.4978 124.846 55.7376 126.168 55.7999 126.879C55.881 127.81 83.6978 124.439 83.6978 124.439C83.6978 124.439 65.5156 127.016 65.5613 127.535L76.1539 126.609" stroke="white" stroke-width="0.623463" stroke-linecap="round" stroke-linejoin="round"/>
</svg>
