<svg width="134" height="130" viewBox="0 0 134 130" fill="none" xmlns="http://www.w3.org/2000/svg">
<path d="M31.2576 29.7225C31.8686 36.6994 112.392 20.5163 112.575 22.6073C112.982 27.2476 47.711 29.6565 47.711 29.6565C47.7379 29.9558 111.71 21.5629 111.927 24.0378C112.057 25.5199 51.3625 27.7554 51.635 30.8764C51.7609 32.3151 116.355 25.2144 116.355 25.2144C116.662 28.7255 52.7331 29.4562 53.0758 33.3554C53.148 34.1914 90.6808 29.4418 90.7344 30.061C90.7468 30.2035 57.3404 33.4112 57.3404 33.4112C57.5984 36.3609 88.9923 30.6411 88.9923 30.6411C89.0274 31.0477 55.4785 32.9075 55.6684 35.0976C55.8727 37.4404 88.9675 31.3078 89.0439 32.1768C89.0439 32.1768 55.5755 34.8602 55.6168 35.3288C55.7592 36.9471 86.0116 32.6701 86.0116 32.6701C86.0116 32.6701 57.4621 36.7943 57.5447 37.7459C57.5447 37.7459 86.7816 34.532 86.8394 35.1822C87.0582 37.6861 57.8316 39.2383 57.844 39.3766C58.005 41.2178 81.0762 37.3062 81.0783 37.3434C81.0783 37.3434 62.5173 39.3106 62.5317 39.4798C62.5317 39.4839 81.7863 37.7955 81.7863 37.7955C81.8854 38.9328 60.8267 42.6091 60.8474 42.8444C60.9299 43.798 78.5125 40.1156 78.6157 41.2901C78.6343 41.5006 62.2489 43.379 62.3253 44.248C62.4327 45.47 78.1203 42.2437 78.174 42.8609C78.238 43.5978 67.1802 45.2492 67.205 45.5485C67.2607 46.178 73.9301 44.3451 73.9837 44.956C73.9837 44.956 69.4137 48.1968 69.4405 48.492C69.4818 48.9708 73.6906 48.0028 73.7009 48.1183C73.7257 48.3949 69.2052 48.9131 69.2052 48.9131C69.2052 48.9131 74.8734 47.9202 74.9167 48.4135C74.9601 48.9069 69.5128 51.8813 69.5128 51.8813C69.5128 51.8813 70.0267 51.8153 70.0288 51.8359C70.0309 51.8689 69.3497 52.1579 69.3517 52.193C69.3517 52.2013 70.4375 52.0815 70.4375 52.0981" stroke="white" stroke-width="3" stroke-linecap="round" stroke-linejoin="round"/>
<path d="M90.8954 29.9372C90.8954 29.9372 119.241 26.2857 119.342 27.4478L98.5658 29.9372C98.634 30.7071 115.915 26.7109 116.064 28.4056C116.078 28.5645 101.615 29.8236 101.718 30.992C101.788 31.7887 118.163 28.2342 118.277 29.5429C118.322 30.0651 96.6854 33.3823 96.6854 33.3823C96.6854 33.3823 121.018 29.6957 121.154 31.2417C121.154 31.2417 99.4287 34.4081 99.4431 34.5877C99.6062 36.4434 119.323 32.8476 119.323 32.8476C119.327 32.9054 92.7325 36.4104 92.8997 38.3156C93.0855 40.4458 123.835 35.4629 123.848 35.6074C123.862 35.7726 89.7973 40.3158 89.9087 41.5894C89.9686 42.2747 124.469 37.8429 124.533 38.5592C124.533 38.5592 87.7661 40.5986 88.0262 43.573C88.1583 45.0758 122.481 40.2993 122.504 40.5573C122.679 42.5699 86.8249 44.2171 86.86 44.6216C87.1551 47.9862 125.179 39.4757 125.336 41.255C125.336 41.255 84.032 45.0902 84.2054 47.0677L123.802 43.604C123.815 43.7506 86.8744 46.8984 86.8744 46.8984C86.8744 46.9067 125.476 42.0208 125.606 43.5091C125.778 45.4741 85.0456 47.8562 85.1219 48.7273C85.2355 50.0277 127.638 45.0076 127.638 45.0076C127.638 45.0076 86.0446 47.0532 86.218 49.041C86.4038 51.1547 127.551 45.4246 127.551 45.4246C127.782 48.0626 85.4832 47.7695 85.6772 49.9699C85.8795 52.29 126.899 44.4338 127.066 46.3493C127.377 49.9245 81.0246 50.8018 81.0246 50.8018C81.2516 53.3964 125.613 43.5978 125.897 46.8757C126.151 49.7697 83.0227 51.7554 83.0516 52.1063C83.1424 53.1384 126.29 48.3227 126.29 48.3227C126.544 51.2187 79.7695 49.5715 80.1349 53.7432C80.1349 53.7432 129.896 48.3248 129.987 49.3816C130.154 51.2827 81.3218 53.6647 81.4126 54.7113C81.586 56.697 127.06 50.1247 127.111 50.713C127.111 50.713 75.5648 53.8794 75.8745 57.4133C75.8745 57.4133 129.338 48.7892 129.681 52.7049C130.096 57.4504 77.7962 58.0325 77.887 59.0791C78.1698 62.3157 127.929 54.701 127.929 54.701C128.348 59.496 75.5648 55.3429 75.9694 59.9852L129.516 55.2996C129.516 55.2996 77.9944 58.0428 78.1533 59.8469C78.335 61.9297 129.805 55.2253 129.813 55.3264L75.5009 62.2971C75.5937 63.3519 128.096 55.636 128.273 57.6795C128.337 58.402 80.1039 64.739 80.1039 64.739C80.3062 67.0591 130.11 58.3174 130.288 60.3485C130.569 63.55 82.5706 64.6853 82.7481 66.7103C82.7481 66.7103 131.19 59.4217 131.454 62.4498C131.735 65.6534 82.0876 68.663 82.0876 68.663C82.4715 73.0452 131.318 64.3551 131.318 64.3551C131.361 64.8443 85.6132 70.5228 85.6132 70.5228C85.6132 70.5228 127.693 64.0475 127.935 66.8197C128.079 68.4751 82.9071 71.0533 82.9071 71.0533C83.0124 72.2443 128.04 62.8338 128.412 67.0715C128.438 67.3894 83.9887 73.681 84.0279 74.1392C84.0671 74.5975 129.376 70.1719 129.376 70.1719C129.415 70.6136 86.9797 72.8636 87.0726 73.9204C87.343 77.0084 127.52 67.8394 127.741 70.3618C128.065 74.069 87.7475 74.4385 87.7475 74.4385L129.76 70.7622C129.824 71.5033 87.9003 72.684 88.0985 74.9318C88.4308 78.7217 130.082 70.3288 130.162 71.2514C130.212 71.8088 86.9487 73.2619 87.1077 75.0908C87.4317 78.7856 131.96 70.7086 131.999 71.1627C132.228 73.7904 85.9889 75.9763 85.9889 75.9763C86.1891 78.2613 128.455 69.1935 128.721 72.2381C128.864 73.875 89.8076 76.5357 89.9418 78.0673C90.1048 79.923 131.019 74.4736 131.019 74.4736C131.13 75.7472 90.9738 78.0921 91.011 78.5111C91.1741 80.3792 130.108 75.0908 130.108 75.0908C130.108 75.0908 92.2825 77.7309 92.3857 78.8992C92.6396 81.8096 130.653 75.5511 130.653 75.5511C130.653 75.5511 88.4638 76.2385 88.7652 79.6877C89.0129 82.5115 126.426 75.9846 126.461 76.3891C126.628 78.2902 90.3298 80.3606 90.3794 80.9262C90.5816 83.2339 128.897 77.1983 128.928 77.5533C129.029 78.7155 92.9802 80.7817 93.0586 81.6817C93.2609 83.9997 130.36 77.7721 130.416 78.4141L92.2639 84.7614C92.2639 84.7614 127.119 78.7423 127.375 81.6899C127.487 82.9532 97.862 85.5169 98.0271 87.42C98.2624 90.1138 125.79 83.2215 125.943 84.9781C125.943 84.9781 97.3996 90.5163 97.4078 90.6236C97.4264 90.8259 127.768 87.4489 127.813 87.9629C127.821 88.0682 101.307 91.408 101.39 92.3596C101.532 93.9985 126.331 88.5223 126.473 90.1654C126.643 92.1036 99.9942 94.4733 99.9942 94.4733C100.161 96.393 123.278 92.2481 123.295 92.4339C123.299 92.4855 101.097 93.7777 101.264 95.6953C101.264 95.6953 121.53 92.535 121.649 93.9118L102.63 97.4271C102.694 98.1578 123.788 93.9531 123.928 95.5632C124.069 97.1732 105.058 96.8739 105.111 97.4808C105.148 97.9039 119.459 95.074 119.558 96.2175C119.606 96.7625 103.379 98.9009 103.419 99.3592C103.439 99.5986 118.239 97.9514 118.248 98.0608C118.277 98.389 104.236 100.175 104.253 100.375C104.298 100.893 119.028 97.7925 119.139 99.0723" stroke="white" stroke-width="3" stroke-linecap="round" stroke-linejoin="round"/>
<path d="M62.7774 75.6275C62.7774 75.6275 62.9755 75.5965 62.9755 75.611C62.9858 75.7389 60.6884 79.0808 60.6905 79.0891C60.7297 79.5287 64.1645 78.6783 64.1727 78.7836L58.5314 80.3771C58.5727 80.8416 64.3977 79.6299 64.4184 79.8631C64.4184 79.8631 56.2608 81.5723 56.2876 81.8716C56.3372 82.4351 67.8717 80.8581 67.8717 80.8581C67.8717 80.8581 53.3049 84.3073 53.3297 84.5942C53.4102 85.5024 70.3467 82.914 70.3632 83.1039C70.3632 83.1039 52.4318 84.747 52.5515 86.1196C52.6526 87.2838 70.5861 84.5426 70.5861 84.5426C70.6666 85.455 50.0476 87.5666 50.157 88.8175C50.157 88.8175 73.5482 85.3002 73.6762 86.7595C73.7298 87.3664 48.7596 89.9961 48.7596 89.9961L70.4416 88.0992C70.4932 88.6792 48.8504 89.8331 48.8835 90.2211L74.7516 87.9588C74.7681 88.1487 47.6181 88.5863 47.8225 90.9188C47.8225 90.9188 74.1571 88.4501 74.1716 88.6131C74.3718 90.9085 46.9844 89.0404 47.1723 91.1954C47.325 92.9355 73.0342 88.8154 73.0445 88.931C73.2179 90.9106 49.6761 92.7931 49.6761 92.7931C49.6761 92.7931 76.1304 89.2778 76.2357 90.4688C76.3224 91.4679 46.5448 93.3834 46.7243 95.4538C46.842 96.8079 75.0591 92.2729 75.119 92.9685C75.2016 93.9201 45.3434 95.8976 45.4838 97.4952C45.5663 98.4303 76.9809 92.3823 77.1852 94.721L42.0139 98.2466C42.0139 98.2466 78.0666 93.0841 78.24 95.0781C78.4258 97.198 42.113 99.0413 42.2018 100.069C42.466 103.097 77.4536 95.2742 77.6022 96.973" stroke="white" stroke-width="3" stroke-linecap="round" stroke-linejoin="round"/>
<path d="M56.0069 3.24959C56.0131 3.3239 68.1421 1.41455 68.2082 2.18242C68.3878 4.24246 41.3658 6.57909 41.4112 7.10133C41.4112 7.10133 79.3712 0.979012 79.6148 3.75944C79.6148 3.75944 39.122 7.82998 39.153 8.16644C39.4564 11.6466 84.8206 4.17021 84.8206 4.17021C85.1901 8.3873 38.2695 4.78533 38.6246 8.85587C38.67 9.37397 84.8619 2.58287 85.0538 4.79359C85.0538 4.79359 37.6296 7.67929 37.7535 9.1015C37.9764 11.6569 84.5522 3.3012 84.7009 4.99381C84.7009 4.99381 30.8777 8.34395 31.2617 12.7406C31.625 16.8999 91.5188 2.21751 91.975 7.42953C92.4394 12.7468 27.6308 9.64851 28.0973 14.9802C28.5886 20.5865 93.9339 9.22123 93.9339 9.22123C94.227 12.5755 26.737 12.2267 27.0116 15.3662C27.2861 18.5058 94.1774 9.48957 94.1774 9.48957C94.1774 9.48957 23.9607 16.7224 24.1114 18.4563C24.1114 18.4563 99.3069 10.9138 99.3915 11.8696C99.5814 14.0307 20.9945 21.0324 20.9945 21.0324C20.9945 21.0324 102.618 11.8448 102.795 13.8759C103.049 16.7843 21.5601 17.3561 21.9069 21.3296C22.0266 22.692 103.846 14.1608 103.846 14.1608C103.846 14.1608 17.9912 16.002 18.6538 23.5754C19.0356 27.9411 108.478 15.7172 108.478 15.7172C109.12 23.0553 19.0088 16.4933 19.7147 24.5683C20.0099 27.935 108.604 10.3895 109.161 16.743C109.169 16.8277 17.6031 22.7167 18.0386 27.7038C18.0531 27.8606 109.401 19.7113 109.401 19.7113L15.8238 28.3726C16.3151 33.9871 112.286 16.0825 112.621 19.9033C113.044 24.7479 14.9073 25.4518 15.3222 30.1828C15.382 30.8764 110.369 21.8684 110.369 21.8684C110.369 21.8684 12.9319 27.2125 13.3654 32.1747C13.4851 33.5536 28.956 30.6328 28.9704 30.8103C28.9704 30.8103 14.2901 34.1419 14.3004 34.2554C14.3376 34.6765 28.826 32.9839 28.826 32.9839L12.4778 34.885C12.5934 36.2061 28.4565 33.4876 28.4565 33.4876L12.3436 36.7427C12.3539 36.8563 32.0481 35.0192 32.0481 35.0192C32.1555 36.237 11.873 38.9906 11.8895 39.1764C11.9308 39.6532 33.1401 35.463 33.3011 37.3021C33.3919 38.3487 9.56936 39.583 9.61683 40.1053C9.73036 41.4036 33.33 38.0308 33.33 38.0308C33.5405 40.4479 6.17793 43.218 6.18 43.2428C6.2378 43.8992 34.2671 40.7864 34.2671 40.7864L7.78386 44.5143C7.78386 44.5143 35.3632 39.4613 35.5923 42.0807C35.71 43.4245 9.043 45.982 9.08428 46.4567C9.3134 49.0823 40.9034 41.7071 41.0747 43.6577C41.3513 46.8076 4.84861 46.3762 4.93737 47.3938C5.01168 48.2381 38.994 41.8123 39.2211 44.3946C39.4316 46.7952 8.37834 47.5693 8.38246 47.6168C8.38246 47.6168 36.87 43.9426 36.9732 45.115C37.0042 45.4783 3.98579 47.7055 4.10551 49.0638C4.10551 49.0638 41.4298 44.1387 41.5742 45.7859C41.8343 48.7644 4.89402 50.8988 4.89402 50.8988C5.12521 53.5368 40.5236 47.623 40.538 47.7798C40.7114 49.7511 6.51439 51.6357 6.62379 52.8783C6.62379 52.8783 41.7002 48.4259 41.8199 49.7986C42.0635 52.579 4.10551 53.4893 4.10551 53.4893L41.3513 50.23C41.5103 52.0341 4.81971 55.248 4.89815 56.1356C5.22223 59.8304 45.0647 48.9007 45.3868 52.5935C45.6241 55.3182 5.53598 55.4379 5.66809 56.9633C5.91785 59.8119 43.9253 52.1703 44.0512 53.6049C44.0512 53.6049 5.31718 54.7216 5.55662 57.4732C5.87037 61.0648 45.7831 51.8318 45.9668 53.9372C46.0638 55.0436 3.49246 56.1872 3.71951 58.7777C3.94657 61.3682 48.6626 54.8455 48.6626 54.8455C48.7204 55.506 4.50596 57.8117 4.77224 60.8522C4.95801 62.9638 49.1724 53.9145 49.4387 56.9447C49.4614 57.1945 4.78875 58.9201 4.99517 61.2754C5.30066 64.7638 51.0157 57.2482 51.0157 57.2482L5.82909 64.1445C5.8518 64.4067 50.1075 58.9181 50.2252 60.2598C50.5121 63.5439 5.3275 64.5945 5.3275 64.5945C5.69286 68.7807 52.8941 56.0489 53.2739 60.4002C53.6042 64.1652 5.95088 67.8311 5.95088 67.8311C6.32655 72.1184 52.9622 63.7173 52.9622 63.7173C53.3297 67.9096 1.93401 69.404 2.00006 70.143L53.1728 65.6658C53.5072 69.4845 5.11283 72.5498 5.12934 72.7418C5.39149 75.7348 56.1246 67.697 56.1762 68.2749C56.1762 68.2749 5.4885 73.0535 5.56281 73.8977C5.75478 76.0878 57.5302 69.3504 57.5302 69.3504C57.6479 70.6941 6.64444 74.872 6.64444 74.872C6.75177 76.1002 53.4122 70.7808 53.4122 70.7808L6.54536 78.1891C6.71462 80.1233 52.7393 74.1475 52.7393 74.1475C53.0655 77.8692 7.48455 78.7692 7.6662 80.8664C7.86229 83.108 50.3057 73.3837 50.6297 77.1075L8.74163 83.8119C8.74163 83.8119 47.8183 79.8859 47.8617 80.3895L8.0522 85.9298C8.14508 86.9845 44.9492 82.7014 44.9492 82.7014C45.203 85.5954 6.77035 86.1981 6.89007 87.5687C7.01805 89.0322 43.1802 84.394 43.1802 84.394L10.9709 88.4914C11.1072 90.0416 41.3265 84.9369 41.405 85.8286C41.6052 88.126 10.7748 87.676 10.9338 89.5008C10.9771 90.0065 42.8829 84.7449 43.0543 86.6914L8.95217 92.9252C9.14827 95.1669 39.1922 89.9549 39.2211 90.2769C39.2335 90.4111 11.6975 93.5032 11.7532 94.1389C11.8048 94.7396 37.0579 91.9241 37.0579 91.9241C37.0579 91.9241 12.4716 92.6176 12.6326 94.4506C12.7193 95.4394 36.3787 92.3741 36.3787 92.3741C36.4985 93.7364 12.7523 93.8293 12.8927 95.4456C12.967 96.3001 36.3891 93.1523 36.4097 93.3876C36.4592 93.947 12.7626 95.4167 12.8596 96.5396C12.8596 96.5396 31.819 94.2318 31.8768 94.8758C31.8768 94.8758 14.8763 96.4364 14.9506 97.2868C15.0373 98.2838 31.883 95.8047 31.883 95.8047C31.916 96.1928 15.4564 98.3147 15.4564 98.3147C15.5203 99.0434 30.2895 95.3485 30.4339 97.004C30.5433 98.259 16.957 100.061 16.957 100.061C16.957 100.061 32.1617 98.1888 32.2091 98.7276C32.2999 99.7762 17.5701 101.328 17.5701 101.328C17.6134 101.836 28.5473 100.369 28.5473 100.369C28.5968 100.938 17.9561 102.901 17.985 103.23C18.1852 105.523 79.59 97.84 79.59 97.84C79.8563 100.878 15.2334 101.611 15.4109 103.642C15.5678 105.44 82.0278 93.7942 82.3766 97.7843C82.3766 97.7843 19.2792 99.9413 19.754 105.374C19.754 105.374 83.5883 95.5446 83.9578 99.7576C84.1456 101.904 19.5248 101.44 20.045 107.399C20.2741 110.025 98.6546 100.521 98.6546 100.521C98.7454 101.564 21.4486 109.273 21.4486 109.273C21.6963 112.101 117.071 96.1226 117.486 100.87C117.723 103.58 23.649 112.366 23.649 112.366C24.3137 119.955 117.403 104.163 117.403 104.163C117.403 104.163 26.3964 106.757 27.0219 113.912C27.6803 121.433 116.229 99.3489 116.817 106.055C117.069 108.939 30.0645 113.881 30.0645 113.881C30.6032 120.04 115.587 103.023 115.88 106.373C116.51 113.565 30.4278 111.061 30.8096 115.425C31.2555 120.525 111.77 106.264 111.95 108.326C112.103 110.078 27.3707 115.788 27.3707 115.788C27.6783 119.305 113.277 104.61 113.595 108.243L32.0316 116.911C32.0316 116.911 110.166 105.232 110.588 110.037C111.009 114.84 31.0429 117.551 31.0429 117.551C31.3897 121.516 109.626 108.953 109.774 110.663C109.774 110.663 35.7512 112.399 36.3498 119.245C36.9237 125.809 109.756 112.824 109.756 112.824C109.985 115.437 37.5698 116.048 38.1044 122.143C38.1663 122.847 104.965 112.989 105.252 116.269L43.4361 122.641C43.4382 122.666 102.822 117.445 102.822 117.445C103.307 122.998 41.1366 121.012 41.3554 123.526C41.6052 126.373 99.2739 115.332 99.5443 118.436C99.5443 118.436 44.9017 122.418 44.9904 123.421C45.2381 126.251 99.6681 118.636 99.6681 118.636C99.8002 120.137 43.1513 123.762 43.1678 123.941C43.529 128.076 100.085 118.857 100.093 118.961C100.093 118.961 46.4952 122.348 46.6294 123.879L100.929 119.13C101.101 121.085 48.5511 124.643 48.6151 125.374C48.6358 125.617 94.5242 121.357 94.5242 121.357C94.6171 122.416 54.467 127.029 54.4753 127.143C54.4753 127.143 86.4182 122.975 86.538 124.338C86.6577 125.7 68.9678 126.691 69.0586 127.735C69.0586 127.735 78.1079 126.522 78.143 126.941" stroke="white" stroke-width="3" stroke-linecap="round" stroke-linejoin="round"/>
<path d="M40.7382 36.5405C40.7382 36.5549 45.8326 35.9439 45.845 36.0946C45.8801 36.4868 41.5618 38.9432 41.5721 39.0422C41.5721 39.0422 49.8639 37.8058 49.9072 38.3136C49.9072 38.3136 42.4721 39.7668 42.4762 39.8307C42.5258 40.386 53.0406 38.906 53.0406 38.906C53.1129 39.7296 44.012 39.5376 44.0801 40.3323C44.0863 40.4087 51.9281 39.3168 51.9549 39.6429C51.9549 39.6429 43.7271 40.2828 43.7498 40.5305C43.7829 40.9 51.2551 39.6264 51.2778 39.872C51.2778 39.872 45.7314 42.8919 45.7789 43.4245C45.8202 43.891 53.8808 42.1261 53.9324 42.7103C53.984 43.2944 47.1846 44.665 47.2383 45.2574C47.2919 45.8498 53.7652 44.6857 53.7652 44.6857C53.7961 45.0366 46.7718 45.2574 46.8007 45.5856C46.8275 45.8911 53.7321 44.9788 53.7321 44.9788C53.7321 44.9788 49.7855 48.0358 49.7978 48.1596C49.7978 48.1596 56.6426 47.4764 56.6509 47.561C56.6653 47.7324 51.0198 50.358 51.0198 50.358C51.0198 50.358 58.6201 49.5261 58.6345 49.6913C58.6531 49.9101 52.5845 50.2961 52.6113 50.5954C52.6216 50.7048 59.485 49.9947 59.485 49.9947C59.485 49.9947 52.7104 51.9082 52.7661 52.5439C52.795 52.8783 63.1943 51.6316 63.1943 51.6316C63.25 52.2694 55.5713 52.676 55.6312 53.3799C55.6539 53.6318 63.4028 52.2219 63.444 52.6967C63.444 52.7029 58.6263 55.7847 58.6531 56.1026C58.6531 56.1129 62.7587 55.7434 62.7587 55.7434L57.1504 56.7074C57.1834 57.0954 65.8405 55.6794 65.8653 55.9457C65.8963 56.2945 59.2042 57.9521 59.2331 58.2926C59.2373 58.3401 63.2521 57.9417 63.2521 57.9417C63.2521 57.9417 59.8132 59.8573 59.8318 60.0616C59.8834 60.6582 66.8458 59.3701 66.852 59.4465C66.852 59.4465 63.667 61.8554 63.669 61.8864C63.6814 62.0391 66.6951 61.6221 66.6951 61.6221L62.4615 62.4643C62.5028 62.9267 66.3235 62.1258 66.3235 62.1258L64.6763 64.1157C64.6805 64.1507 69.9049 63.6574 69.9049 63.6574C69.9255 63.8845 67.1348 66.2583 67.1389 66.2933C67.1492 66.4234 71.1 65.445 71.1434 65.9424C71.164 66.186 65.7167 67.0261 65.727 67.1479C65.7559 67.4864 71.1681 66.6711 71.1681 66.6711C71.2177 67.2449 65.5206 69.9965 65.5206 70.0026C65.533 70.1533 72.0888 69.4288 72.0888 69.4288L68.6664 71.14C68.6664 71.14 73.3562 70.1533 73.4057 70.7251C73.416 70.851 72.13 72.8491 72.1342 72.8925C72.1817 73.425 78.8407 71.9079 78.8737 72.3021C78.9521 73.2042 68.5508 73.487 68.5776 73.778C68.5921 73.9452 76.9726 72.5251 77.018 73.039C77.049 73.392 72.5573 73.9452 72.5573 73.9535C72.5573 73.9535 74.7474 73.5303 74.768 73.7594C74.7742 73.8214 69.3352 75.0764 69.3558 75.3076C69.3558 75.3076 79.336 74.1207 79.3629 74.4323C79.4186 75.0599 71.9959 76.9816 71.9959 76.9816C72.0372 77.4543 78.3122 76.4016 78.3143 76.4284C78.3329 76.6307 75.7072 78.6598 75.7176 78.7857C75.7176 78.7857 79.5631 78.216 79.5817 78.4472C79.6209 78.8951 73.5523 79.3657 73.5523 79.3657L79.109 78.8786C79.1255 79.0623 76.7393 81.7127 76.7476 81.8014C76.7992 82.3815 83.0784 80.6641 83.1279 81.2441C83.1589 81.5867 78.2647 82.3711 78.2813 82.5631C78.3205 83.0007 81.7676 82.0347 81.7862 82.2555C81.7862 82.2555 78.5723 82.8025 78.5929 83.0358C78.6404 83.5828 83.6729 82.2679 83.6997 82.5899C83.7141 82.7509 77.6682 83.88 77.7012 84.2598C77.7343 84.6396 86.3872 83.5002 86.3872 83.5002C86.3955 83.5972 80.4486 85.7378 80.4879 86.1836C80.5147 86.485 87.1118 85.1701 87.1489 85.6016C87.151 85.6366 81.0245 86.2518 81.0534 86.5779C81.0968 87.0692 88.7239 85.907 88.7239 85.907L84.1001 89.2551C84.1022 89.2902 87.9003 88.7411 87.9168 88.9207C87.9436 89.218 83.8958 89.6803 83.8958 89.6803C83.9453 90.2377 90.914 88.4831 90.9656 89.0611C91.0027 89.4946 86.8434 92.7105 86.8434 92.7105C86.8909 93.2493 90.6312 92.3782 90.6312 92.3782C90.6518 92.6238 87.8363 93.4681 87.8404 93.5114L90.0408 93.3195" stroke="white" stroke-width="3" stroke-linecap="round" stroke-linejoin="round"/>
</svg>
